<svg viewBox="0 0 62 60" width="62" height="60" fill="none" xmlns="http://www.w3.org/2000/svg">
  <path d="M 4,50 C 8,35 18,15 32,6" stroke="#7BAD8A" stroke-width="1.6" stroke-linecap="round" fill="none"/>
  <path d="M 9,52 C 13,36 24,16 39,7" stroke="#7BAD8A" stroke-width="1.6" stroke-linecap="round" fill="none"/>
  <path d="M 14,53 C 19,37 30,17 45,8" stroke="#7BAD8A" stroke-width="1.6" stroke-linecap="round" fill="none"/>
  <path d="M 19,54 C 25,38 36,18 51,9" stroke="#7BAD8A" stroke-width="1.6" stroke-linecap="round" fill="none"/>
  <path d="M 24,55 C 30,39 42,19 56,10" stroke="#7BAD8A" stroke-width="1.6" stroke-linecap="round" fill="none"/>
  <path d="M 29,55 C 36,40 47,21 58,14" stroke="#7BAD8A" stroke-width="1.6" stroke-linecap="round" fill="none"/>
  <path d="M 33,54 C 40,41 51,24 58,20" stroke="#7BAD8A" stroke-width="1.6" stroke-linecap="round" fill="none"/>
  <path d="M 37,53 C 43,42 53,27 57,26" stroke="#7BAD8A" stroke-width="1.6" stroke-linecap="round" fill="none"/>
  <path d="M 40,52 C 45,43 53,31 56,32" stroke="#7BAD8A" stroke-width="1.6" stroke-linecap="round" fill="none"/>
</svg>
